<mxfile host="app.diagrams.net" modified="2024-02-26T15:56:37.531Z" agent="Mozilla/5.0 (X11; Linux x86_64; rv:123.0) Gecko/20100101 Firefox/123.0" version="23.1.6" etag="V7hGzupsN-Tst4U-HE_1" type="github">
  <diagram name="Page-1" id="Nqb2drCKzVzunxPfEME6">
    <mxGraphModel>
      <root>
        <mxCell id="0" />
        <mxCell id="1" parent="0" />
      </root>
    </mxGraphModel>
  </diagram>
</mxfile>
